<svg xmlns="http://www.w3.org/2000/svg" viewBox="0 0 135.7 52.16"><defs><style>.cls-1,.cls-2{fill:#fff;}.cls-2{fill-rule:evenodd;}</style></defs><title>Asset 3</title><g id="Layer_2" data-name="Layer 2"><g id="Layer_1-2" data-name="Layer 1"><polygon class="cls-1" points="68.22 22.44 70.56 18.96 67.81 14.81 67.81 14.6 67.97 14.53 69.76 14.53 71.6 17.52 73.52 14.53 75.49 14.53 75.49 14.74 75.46 14.85 72.47 19.19 70.35 22.44 68.22 22.44"/><polygon class="cls-1" points="89.31 22.45 89.31 17.27 87.08 20.24 86.64 20.24 84.47 17.27 84.47 22.45 82.72 22.45 82.72 14.54 84.61 14.54 86.89 17.69 89.18 14.54 91.06 14.54 91.06 22.45 89.31 22.45"/><polygon class="cls-1" points="102.8 22.45 102.8 19.38 99.41 19.38 99.41 22.45 97.66 22.45 97.66 14.54 99.41 14.54 99.41 17.74 102.8 17.74 102.8 14.54 104.54 14.54 104.54 22.45 102.8 22.45"/><path class="cls-1" d="M117.41,18a2.67,2.67,0,0,1,1,2c0,1.57-1,2.4-3,2.4h-3.75V14.53h1.68l0,3.06h2a2.92,2.92,0,0,1,2,.42m-2,2.78c.21,0,1.26,0,1.26-.75,0-.56-.74-.88-1.26-.88h-2v1.63Z"/><rect class="cls-1" x="119.68" y="14.53" width="1.74" height="7.9"/><path class="cls-1" d="M131.58,11.63a.65.65,0,0,1-.19.5.69.69,0,0,1-.51.18.73.73,0,0,1-.52-.18.68.68,0,0,1-.18-.5h-1a1.42,1.42,0,0,0,.48,1.12,2.07,2.07,0,0,0,2.51,0,1.4,1.4,0,0,0,.48-1.11Z"/><polygon class="cls-1" points="128.8 22.39 132.49 17.63 132.49 22.44 134.24 22.44 134.24 14.53 132.85 14.53 129.38 18.93 129.38 14.52 127.63 14.52 127.63 22.44 128.51 22.44 128.75 22.43 128.8 22.39"/><path class="cls-1" d="M75,38.28l-.85-1.91H69l-.86,1.91H65.75l4.67-10.43h2.29l4.67,10.43Zm-1.75-4-1.63-3.74-1.63,3.74Z"/><path class="cls-1" d="M82.58,38.28V27.85l4.92,0a3.64,3.64,0,0,1,3.86,3.74,3.75,3.75,0,0,1-1,2.57,3.81,3.81,0,0,1-2.89,1.17H84.8v3Zm4.92-5a1.63,1.63,0,0,0,1.25-.51,1.68,1.68,0,0,0,.41-1.12A1.57,1.57,0,0,0,87.5,30H84.8v3.26Z"/><polygon class="cls-1" points="103.61 38.28 101.11 34.61 98.61 38.28 96.23 38.28 96.23 38.07 96.26 37.97 99.7 33.01 96.33 28.15 96.33 27.85 98.67 27.85 101.11 31.49 103.55 27.85 105.88 27.85 105.88 28.15 102.5 33.01 105.98 38.01 105.98 38.22 105.82 38.28 103.61 38.28"/><polygon class="cls-1" points="113.61 38.23 118.63 31.77 118.63 38.28 120.85 38.28 120.85 27.85 119.07 27.85 114.36 33.81 114.36 27.84 112.14 27.84 112.14 38.28 113.32 38.28 113.57 38.28 113.61 38.23"/><path class="cls-1" d="M126.81,38.28V27.85h4.95c2.31,0,3.64,1.13,3.64,3.09a2.17,2.17,0,0,1-1.09,1.93,2.71,2.71,0,0,1,1.39,2.27c0,2.06-1.36,3.14-3.94,3.14Zm4.95-2.1c.29,0,1.73,0,1.73-1,0-.79-1-1.23-1.73-1.23H129v2.28Zm0-4.27c.65,0,1.43-.16,1.43-.92,0-.38-.3-1.09-1.43-1.09H129v2Z"/><path class="cls-2" d="M36,22.81c-6.56.18-13.21.22-19.73.5-.55,0-.91.08-.94.68-.06.94.43.85,1.07.85,5.4,0,19.25-.17,19.6-.17Z"/><path class="cls-2" d="M8.91,6.33a.46.46,0,0,0,.55.47l2.08-.38a.71.71,0,0,0,.55-.67V5.39a.44.44,0,0,0-.55-.45l-2.08.42A.71.71,0,0,0,8.91,6Z"/><path class="cls-2" d="M11.36,9.58a.47.47,0,0,0,.56.48l2.89-.44A.68.68,0,0,0,15.37,9V8.56a.46.46,0,0,0-.56-.47l-2.89.46a.69.69,0,0,0-.56.66Z"/><path class="cls-2" d="M4.62,10.61a.47.47,0,0,0,.56.48l1.51-.24a.67.67,0,0,0,.56-.65V9.91a.47.47,0,0,0-.56-.48l-1.51.23a.7.7,0,0,0-.56.66Z"/><path class="cls-2" d="M5.25,14a.49.49,0,0,0,.56.5l1.5-.19a.66.66,0,0,0,.56-.64v-.29a.49.49,0,0,0-.56-.5l-1.5.2a.65.65,0,0,0-.56.63Z"/><path class="cls-2" d="M10.21,17.07a.52.52,0,0,0,.57.52l3.61-.31a.63.63,0,0,0,.57-.61v-.4a.51.51,0,0,0-.57-.51l-3.64.33a.62.62,0,0,0-.55.62Z"/><path class="cls-2" d="M4.42,17.59a.53.53,0,0,0,.58.52L6.44,18A.64.64,0,0,0,7,17.37V17a.5.5,0,0,0-.56-.51L5,16.67a.64.64,0,0,0-.56.62Z"/><path class="cls-2" d="M7.2,20.84a.54.54,0,0,0,.57.54l2.42-.12a.61.61,0,0,0,.56-.6v-.39a.52.52,0,0,0-.56-.53l-2.42.15a.62.62,0,0,0-.57.6Z"/><path class="cls-2" d="M8,24.34a.55.55,0,0,0,.56.56l4.54,0a.58.58,0,0,0,.57-.57V23.9a.57.57,0,0,0-.57-.56l-4.53.1A.59.59,0,0,0,8,24Z"/><path class="cls-2" d="M3.74,24.39A.56.56,0,0,0,4.3,25H5.55a.57.57,0,0,0,.56-.57v-.3a.54.54,0,0,0-.56-.55l-1.23,0a.6.6,0,0,0-.58.58Z"/><path class="cls-2" d="M3.31,21a.54.54,0,0,0,.57.54l.62,0a.6.6,0,0,0,.57-.59v-.3a.53.53,0,0,0-.57-.53l-.62,0a.62.62,0,0,0-.57.6Z"/><path class="cls-2" d="M5.59,27.9a.59.59,0,0,0,.57.58l2.53.06A.55.55,0,0,0,9.25,28v-.33a.58.58,0,0,0-.56-.58L6.16,27a.57.57,0,0,0-.57.56Z"/><path class="cls-2" d="M1,27.76a.6.6,0,0,0,.57.59l1.4,0a.55.55,0,0,0,.57-.55v-.29A.57.57,0,0,0,3,27L1.61,27a.57.57,0,0,0-.57.56Z"/><path class="cls-2" d="M0,31.18a.61.61,0,0,0,.56.6l.71,0a.53.53,0,0,0,.57-.53V31a.6.6,0,0,0-.57-.59l-.7,0A.53.53,0,0,0,0,31Z"/><path class="cls-2" d="M1.55,34.58a.64.64,0,0,0,.56.62l1.26.12a.5.5,0,0,0,.56-.51v-.33a.63.63,0,0,0-.57-.61l-1.24-.11a.51.51,0,0,0-.56.52Z"/><path class="cls-2" d="M.37,37.78a.67.67,0,0,0,.57.64l.5.07A.47.47,0,0,0,2,38v-.22a.65.65,0,0,0-.57-.63l-.49-.06a.5.5,0,0,0-.56.51Z"/><path class="cls-2" d="M1.43,44.6a.75.75,0,0,0,.55.69l.79.17A.43.43,0,0,0,3.32,45V44.8a.73.73,0,0,0-.56-.68L2,44a.45.45,0,0,0-.56.45Z"/><path class="cls-2" d="M4.46,31.45a.6.6,0,0,0,.56.6l3.74.22a.54.54,0,0,0,.57-.54v-.36a.6.6,0,0,0-.57-.59L5,30.59a.54.54,0,0,0-.57.54Z"/><path class="cls-2" d="M7.63,35.16a.64.64,0,0,0,.56.62l3.92.4a.5.5,0,0,0,.56-.51V35.2a.62.62,0,0,0-.56-.61L8.2,34.25a.52.52,0,0,0-.57.52Z"/><path class="cls-2" d="M4,38.26a.65.65,0,0,0,.55.65l3,.41a.49.49,0,0,0,.57-.49v-.38a.64.64,0,0,0-.57-.62l-3-.3A.52.52,0,0,0,4,38Z"/><path class="cls-2" d="M8.26,42.44a.65.65,0,0,0,.53.65l6.57,1.09a.47.47,0,0,0,.56-.48v-.42a.67.67,0,0,0-.56-.65l-6.51-1a.49.49,0,0,0-.58.48Z"/><path class="cls-2" d="M5.43,45.49a.68.68,0,0,0,.54.67l5.38,1a.46.46,0,0,0,.56-.46v-.34a.72.72,0,0,0-.56-.67L6,44.73a.47.47,0,0,0-.58.46Z"/><path class="cls-2" d="M2.75,41.51a.67.67,0,0,0,.54.66l2.79.45a.47.47,0,0,0,.56-.48v-.29a.68.68,0,0,0-.56-.65l-2.75-.4a.5.5,0,0,0-.58.49Z"/><path class="cls-2" d="M1.39,14.42a.49.49,0,0,0,.56.5l.77-.1a.65.65,0,0,0,.56-.63V14a.48.48,0,0,0-.56-.49l-.77.1a.66.66,0,0,0-.56.64Z"/><path class="cls-2" d="M2.87,7.45a.46.46,0,0,0,.55.47l1.85-.34a.71.71,0,0,0,.56-.67V6.66a.45.45,0,0,0-.56-.46l-1.85.37a.74.74,0,0,0-.55.68Z"/><path class="cls-2" d="M36,0,14.85,4.29A.73.73,0,0,0,14.3,5V5.3a.46.46,0,0,0,.55.47L36,1.82Z"/><path class="cls-2" d="M36,4.56,18.59,7.45A.68.68,0,0,0,18,8.1v.49a.47.47,0,0,0,.56.48L36,6.41Z"/><path class="cls-2" d="M36,9.09,9.8,12.55a.67.67,0,0,0-.57.64v.29a.5.5,0,0,0,.57.5L36,10.92Z"/><path class="cls-2" d="M36,13.64,18,15.38a.63.63,0,0,0-.56.62v.47A.53.53,0,0,0,18,17l18-1.54Z"/><path class="cls-2" d="M36,18.22l-21.8,1.3a.61.61,0,0,0-.57.6v.41a.54.54,0,0,0,.57.54l21.8-1Z"/><path class="cls-2" d="M36,27.39l-24.75-.3a.55.55,0,0,0-.57.56V28a.59.59,0,0,0,.57.59L36,29.28Z"/><path class="cls-2" d="M36,32,11.58,30.9a.54.54,0,0,0-.57.54v.4a.61.61,0,0,0,.57.6L36,33.91Z"/><path class="cls-2" d="M36,36.68,14.56,34.83a.52.52,0,0,0-.57.52v.43a.62.62,0,0,0,.55.62L36,38.52Z"/><path class="cls-2" d="M36,41.24,10.12,38.19a.49.49,0,0,0-.57.5V39a.65.65,0,0,0,.55.64L36,43.08Z"/><path class="cls-2" d="M36,45.75,18.39,43.07a.5.5,0,0,0-.58.48l0,.47a.66.66,0,0,0,.53.65L36,47.6Z"/><path class="cls-2" d="M36,50.36,15.13,46.44a.47.47,0,0,0-.58.46v.35a.69.69,0,0,0,.54.68L36,52.16Z"/><polygon class="cls-2" points="52.76 3.38 36.07 0 36.07 1.82 52.76 4.93 52.76 3.38"/><polygon class="cls-2" points="52.76 7.32 36.07 4.56 36.07 6.41 52.76 8.96 52.76 7.32"/><polygon class="cls-2" points="52.76 11.29 36.07 9.09 36.07 10.91 52.76 12.87 52.76 11.29"/><polygon class="cls-2" points="52.76 15.25 36.07 13.64 36.07 15.45 52.76 16.88 52.76 15.25"/><polygon class="cls-2" points="52.76 19.22 36.07 18.22 36.07 20.08 52.76 20.84 52.76 19.22"/><path class="cls-2" d="M52.76,23.21c-5.54-.19-11.14-.24-16.68-.4v1.86c.3,0,10.36.12,16.68.16Z"/><polygon class="cls-2" points="52.76 27.18 36.07 27.39 36.07 29.28 52.76 28.83 52.76 27.18"/><polygon class="cls-2" points="52.76 31.26 36.07 32.04 36.07 33.91 52.76 32.91 52.76 31.26"/><polygon class="cls-2" points="52.76 35.24 36.07 36.68 36.07 38.52 52.76 36.88 52.76 35.24"/><polygon class="cls-2" points="52.76 39.27 36.07 41.24 36.07 43.08 52.76 40.86 52.76 39.27"/><polygon class="cls-2" points="52.76 43.21 36.07 45.75 36.07 47.6 52.76 44.84 52.76 43.21"/><polygon class="cls-2" points="52.76 47.22 36.07 50.36 36.07 52.16 52.76 48.79 52.76 47.22"/></g></g></svg>